<svg width="76" height="76" viewBox="0 0 76 76" fill="none" xmlns="http://www.w3.org/2000/svg">
<rect width="76" height="76" fill="url(#paint0_linear_428_2026)"/>
<g clip-path="url(#clip0_428_2026)">
<path d="M57.1316 36.2059C57.9189 35.4386 58.1969 34.3125 57.8573 33.2656C57.5169 32.2187 56.6302 31.4715 55.5409 31.3129L45.8557 29.9056C45.4432 29.8455 45.0867 29.5868 44.9025 29.2127L40.5725 20.4366C40.0863 19.4506 39.0996 18.8379 37.9998 18.8379C36.9009 18.8379 35.9141 19.4506 35.4279 20.4366L31.0971 29.2127C30.9129 29.5868 30.5557 29.8455 30.1432 29.9056L20.458 31.3137C19.3695 31.4715 18.4828 32.2187 18.1424 33.2656C17.8028 34.3125 18.0807 35.4386 18.8681 36.2059L25.8757 43.0365C26.1744 43.3281 26.3114 43.7478 26.2409 44.1579L24.5869 53.8039C24.4011 54.8876 24.8376 55.9616 25.7275 56.6088C26.6166 57.2568 27.774 57.3409 28.7487 56.8275L37.4103 52.2732C37.7796 52.0794 38.2201 52.0794 38.5893 52.2732L47.2517 56.8275C47.6746 57.0502 48.1328 57.1599 48.5885 57.1599C49.1805 57.1599 49.77 56.9749 50.273 56.6088C51.1628 55.9616 51.5994 54.8876 51.4135 53.8039L49.7587 44.1587C49.6883 43.7478 49.8252 43.3289 50.124 43.0373L57.1316 36.2059ZM48.1809 44.4294L49.8348 54.0746C49.9181 54.56 49.7299 55.0237 49.331 55.3137C48.9314 55.6028 48.434 55.6381 47.9974 55.4106L39.335 50.8555C38.9177 50.6369 38.458 50.5263 37.9998 50.5263C37.5417 50.5263 37.0827 50.6369 36.6646 50.8563L28.0038 55.4106C27.5657 55.6381 27.0683 55.6028 26.6694 55.3137C26.2706 55.0237 26.0831 54.5608 26.1656 54.0746L27.8196 44.4294C27.979 43.4987 27.6706 42.5487 26.9946 41.8904L19.9862 35.059C19.633 34.7145 19.5128 34.2292 19.6658 33.7606C19.818 33.2912 20.2001 32.9692 20.6879 32.898L30.3723 31.4907C31.307 31.3553 32.1152 30.769 32.5325 29.9216L36.8633 21.1455C37.0811 20.7033 37.5064 20.4398 37.999 20.4398C38.4924 20.4398 38.9169 20.7033 39.1356 21.1455L43.4664 29.9216C43.8837 30.769 44.6911 31.3553 45.6258 31.4907L55.311 32.898C55.7988 32.9692 56.1809 33.2912 56.333 33.7606C56.4852 34.2292 56.3659 34.7145 56.0126 35.059L49.005 41.8896C48.329 42.5487 48.0207 43.4979 48.1809 44.4294Z" fill="white"/>
</g>
<path d="M21.0518 45.3154L17.0104 47.6487C16.4524 47.9709 15.7761 47.8443 15.5 47.366C15.2239 46.8877 15.4524 46.2388 16.0104 45.9167L20.0518 43.5833C20.6098 43.2612 21.286 43.3877 21.5622 43.866C21.8383 44.3443 21.6098 44.9932 21.0518 45.3154Z" fill="white"/>
<path d="M50.272 25.6987L53.3575 22.1976C53.7835 21.7142 53.793 21.0263 53.3786 20.6612C52.9643 20.296 52.2831 20.3919 51.857 20.8753L48.7716 24.3764C48.3455 24.8598 48.3361 25.5476 48.7504 25.9128C49.1648 26.278 49.846 26.1821 50.272 25.6987Z" fill="white"/>
<path d="M54.5434 46.9873L58.5849 49.3206C59.1429 49.6428 59.8191 49.5162 60.0952 49.0379C60.3714 48.5596 60.1429 47.9107 59.5849 47.5885L55.5434 45.2552C54.9854 44.933 54.3092 45.0596 54.033 45.5379C53.7569 46.0162 53.9854 46.6651 54.5434 46.9873Z" fill="white"/>
<path d="M25.8569 25.6987L22.7714 22.1976C22.3454 21.7142 22.3359 21.0263 22.7503 20.6612C23.1646 20.296 23.8458 20.3919 24.2719 20.8753L27.3573 24.3764C27.7834 24.8598 27.7928 25.5476 27.3785 25.9128C26.9641 26.278 26.2829 26.1821 25.8569 25.6987Z" fill="white"/>
<defs>
<linearGradient id="paint0_linear_428_2026" x1="80.9692" y1="83.8923" x2="-45.142" y2="65.4407" gradientUnits="userSpaceOnUse">
<stop stop-color="#0B3F37"/>
<stop offset="0.969562" stop-color="#CB8D62"/>
</linearGradient>
<clipPath id="clip0_428_2026">
<rect width="40" height="40" fill="white" transform="translate(18 18)"/>
</clipPath>
</defs>
</svg>
