<svg width="30" height="27" viewBox="0 0 30 27" fill="none" xmlns="http://www.w3.org/2000/svg">
<path d="M21.8752 0.396484C20.4676 0.418378 19.0908 0.811301 17.8836 1.53557C16.6765 2.25985 15.6819 3.28982 15.0002 4.52148C14.3185 3.28982 13.3239 2.25985 12.1167 1.53557C10.9096 0.811301 9.53275 0.418378 8.12519 0.396484C5.88137 0.493973 3.76732 1.47555 2.24492 3.12677C0.722516 4.778 -0.0844962 6.96464 0.000192003 9.20898C0.000192003 14.8927 5.98269 21.1002 11.0002 25.309C12.1205 26.2504 13.5369 26.7665 15.0002 26.7665C16.4635 26.7665 17.8799 26.2504 19.0002 25.309C24.0177 21.1002 30.0002 14.8927 30.0002 9.20898C30.0849 6.96464 29.2779 4.778 27.7555 3.12677C26.2331 1.47555 24.119 0.493973 21.8752 0.396484ZM17.3939 23.3965C16.7239 23.9607 15.8761 24.2701 15.0002 24.2701C14.1242 24.2701 13.2765 23.9607 12.6064 23.3965C6.18394 18.0077 2.50019 12.8377 2.50019 9.20898C2.41474 7.62738 2.95815 6.07615 4.0119 4.89361C5.06564 3.71107 6.54423 2.99317 8.12519 2.89648C9.70615 2.99317 11.1847 3.71107 12.2385 4.89361C13.2922 6.07615 13.8356 7.62738 13.7502 9.20898C13.7502 9.54051 13.8819 9.85845 14.1163 10.0929C14.3507 10.3273 14.6687 10.459 15.0002 10.459C15.3317 10.459 15.6497 10.3273 15.8841 10.0929C16.1185 9.85845 16.2502 9.54051 16.2502 9.20898C16.1647 7.62738 16.7081 6.07615 17.7619 4.89361C18.8156 3.71107 20.2942 2.99317 21.8752 2.89648C23.4561 2.99317 24.9347 3.71107 25.9885 4.89361C27.0422 6.07615 27.5856 7.62738 27.5002 9.20898C27.5002 12.8377 23.8164 18.0077 17.3939 23.3915V23.3965Z" fill="#031412"/>
</svg>
