<svg width="30" height="27" viewBox="0 0 30 27" fill="none" xmlns="http://www.w3.org/2000/svg">
<path fill-rule="evenodd" clip-rule="evenodd" d="M17.8836 1.53557C19.0908 0.811301 20.4676 0.418378 21.8752 0.396484C24.119 0.493973 26.2331 1.47555 27.7555 3.12678C29.2779 4.778 30.0849 6.96464 30.0002 9.20898C30.0002 14.8927 24.0177 21.1002 19.0002 25.309C17.8799 26.2504 16.4635 26.7665 15.0002 26.7665C13.5369 26.7665 12.1205 26.2504 11.0002 25.309C5.98269 21.1002 0.000192003 14.8927 0.000192003 9.20898C-0.0844962 6.96464 0.722516 4.778 2.24492 3.12678C3.76732 1.47555 5.88137 0.493973 8.12519 0.396484C9.53275 0.418378 10.9096 0.811301 12.1167 1.53557C13.3239 2.25985 14.3185 3.28982 15.0002 4.52148C15.6819 3.28982 16.6765 2.25985 17.8836 1.53557Z" fill="url(#paint0_linear_428_2367)"/>
<defs>
<linearGradient id="paint0_linear_428_2367" x1="7.57322" y1="-6.39239" x2="29.8512" y2="-5.41749" gradientUnits="userSpaceOnUse">
<stop stop-color="#5E3928"/>
<stop offset="0.911458" stop-color="#E4A16F"/>
</linearGradient>
</defs>
</svg>
